<?xml version="1.0" encoding="UTF-8" standalone="no"?>
<!-- Created with Inkscape (http://www.inkscape.org/) -->

<svg
   version="1.1"
   id="svg1"
   viewBox="0 0 204.64844 63.726562"
   sodipodi:docname="Matrix layout plots.pdf"
   xmlns:inkscape="http://www.inkscape.org/namespaces/inkscape"
   xmlns:sodipodi="http://sodipodi.sourceforge.net/DTD/sodipodi-0.dtd"
   xmlns="http://www.w3.org/2000/svg"
   xmlns:svg="http://www.w3.org/2000/svg">
  <defs
     id="defs1" />
  <sodipodi:namedview
     id="namedview1"
     pagecolor="#ffffff"
     bordercolor="#111111"
     borderopacity="1"
     inkscape:showpageshadow="0"
     inkscape:pageopacity="0"
     inkscape:pagecheckerboard="1"
     inkscape:deskcolor="#d1d1d1">
    <inkscape:page
       x="0"
       y="0"
       width="204.64844"
       height="63.726562"
       id="page2"
       margin="0"
       bleed="0" />
  </sodipodi:namedview>
  <g
     id="g1"
     inkscape:groupmode="layer"
     inkscape:label="1"
     transform="translate(-305.16797,-685.8047)">
    <path
       id="path232"
       d="M 3.2469766,17.530484 H 3.9383828 V 0.30392188 h 2.625 V -0.38748437 H 3.2469766 Z m 0,5.991211 h 0.6914062 v -6 H 3.2469766 Z m 0,5.979493 h 0.6914062 v -6 H 3.2469766 Z m 0,17.90625 H 6.5633828 V 46.72775 h -2.625 V 29.489469 H 3.2469766 Z m 0,0"
       style="fill:var(--svg-text-color,#000000);fill-opacity:1;fill-rule:nonzero;stroke:none"
       aria-label="&#10;&#10;&#10;"
       transform="matrix(1.3333333,0,0,1.3333333,300.83867,686.32133)" />
    <path
       id="path233"
       d="m 2.9301719,-6.3745234 c 0,-0.234375 0,-0.2578125 -0.234375,-0.2578125 -0.609375,0.6328125 -1.4882813,0.6328125 -1.80468753,0.6328125 v 0.3164062 c 0.19921873,0 0.78515623,0 1.30078123,-0.2578125 v 5.15625001 c 0,0.3515625 -0.035156,0.48046875 -0.9257812,0.48046875 H 0.94970312 V 4.765625e-4 C 1.3012656,-0.03467969 2.1567344,-0.03467969 2.5551719,-0.03467969 c 0.3984375,0 1.265625,0 1.6171875,0.0351562525 V -0.30421094 H 3.8559531 c -0.9023437,0 -0.9257812,-0.1171875 -0.9257812,-0.48046875 z m 0,0"
       style="fill:var(--svg-text-color,#000000);fill-opacity:1;fill-rule:nonzero;stroke:none"
       aria-label="1"
       transform="matrix(1.3333333,0,0,1.3333333,309.69467,696.41733)" />
    <path
       id="path234"
       d="m 4.5828516,-3.1870234 c 0,-0.796875 -0.046875,-1.59375 -0.3984375,-2.3320313 -0.4570313,-0.9609375 -1.2773438,-1.1132812 -1.6875,-1.1132812 -0.5976563,0 -1.3359375,0.2578125 -1.73437504,1.1835937 -0.328125,0.6914063 -0.375,1.4648438 -0.375,2.2617188 0,0.75 0.046875,1.640625 0.4453125,2.40234371 0.43359374,0.80859375 1.16015624,1.0078125 1.65234374,1.0078125 0.5390625,0 1.2890625,-0.2109375 1.734375,-1.16015625 C 4.5359766,-1.6284297 4.5828516,-2.4018672 4.5828516,-3.1870234 Z M 2.4851953,4.765625e-4 c -0.3867187,0 -0.984375,-0.2460937525 -1.1601562,-1.2070312625 -0.1054688,-0.5976562 -0.1054688,-1.5117187 -0.1054688,-2.0976562 0,-0.6445313 0,-1.3007813 0.082031,-1.8398438 0.1875,-1.1835937 0.9257812,-1.265625 1.1835937,-1.265625 0.328125,0 0.984375,0.1757813 1.171875,1.1601563 0.09375,0.5625 0.09375,1.3125 0.09375,1.9453125 0,0.75 0,1.4179687 -0.1054687,2.0625 C 3.4930078,-0.30421094 2.9305078,4.765625e-4 2.4851953,4.765625e-4 Z m 0,0"
       style="fill:var(--svg-text-color,#000000);fill-opacity:1;fill-rule:nonzero;stroke:none"
       aria-label="0"
       transform="matrix(1.3333333,0,0,1.3333333,329.62,696.41733)" />
    <path
       id="path235"
       d="m 4.5831875,-3.1870234 c 0,-0.796875 -0.046875,-1.59375 -0.3984375,-2.3320313 -0.4570313,-0.9609375 -1.2773438,-1.1132812 -1.6875,-1.1132812 -0.5976563,0 -1.3359375,0.2578125 -1.734375,1.1835937 -0.328125,0.6914063 -0.375,1.4648438 -0.375,2.2617188 0,0.75 0.046875,1.640625 0.4453125,2.40234371 0.4335937,0.80859375 1.1601562,1.0078125 1.6523437,1.0078125 0.5390625,0 1.2890625,-0.2109375 1.734375,-1.16015625 C 4.5363125,-1.6284297 4.5831875,-2.4018672 4.5831875,-3.1870234 Z M 2.4855312,4.765625e-4 c -0.3867187,0 -0.984375,-0.2460937525 -1.1601562,-1.2070312625 -0.1054688,-0.5976562 -0.1054688,-1.5117187 -0.1054688,-2.0976562 0,-0.6445313 0,-1.3007813 0.082031,-1.8398438 0.1875,-1.1835937 0.9257812,-1.265625 1.1835937,-1.265625 0.328125,0 0.984375,0.1757813 1.171875,1.1601563 0.09375,0.5625 0.09375,1.3125 0.09375,1.9453125 0,0.75 0,1.4179687 -0.1054687,2.0625 C 3.4933437,-0.30421094 2.9308437,4.765625e-4 2.4855312,4.765625e-4 Z m 0,0"
       style="fill:var(--svg-text-color,#000000);fill-opacity:1;fill-rule:nonzero;stroke:none"
       aria-label="0"
       transform="matrix(1.3333333,0,0,1.3333333,349.54533,696.41733)" />
    <g
       id="g235"
       aria-label="t&#10;x"
       transform="matrix(1.3333333,0,0,1.3333333,369.47067,696.41733)">
      <path
         id="path236"
         d="m 2.0493437,-3.9838984 h 0.9375 c 0.1992188,0 0.3046875,0 0.3046875,-0.1992188 0,-0.1054687 -0.1054687,-0.1054687 -0.28125,-0.1054687 H 2.131375 c 0.3632812,-1.4179688 0.4101562,-1.6171875 0.4101562,-1.6757813 0,-0.1757812 -0.1171875,-0.2695312 -0.2929687,-0.2695312 -0.023437,0 -0.3046875,0.011719 -0.3984375,0.3515625 l -0.3867188,1.59375 H 0.52590625 c -0.19921875,0 -0.29296875,0 -0.29296875,0.1875 0,0.1171875 0.0703125,0.1171875 0.26953125,0.1171875 H 1.381375 c -0.71484375,2.8242187 -0.75,2.99999996 -0.75,3.17578121 0,0.5390625 0.375,0.9140625 0.9140625,0.9140625 1.0078125,0 1.5820312,-1.45312501 1.5820312,-1.53515621 0,-0.09375 -0.082031,-0.09375 -0.1171875,-0.09375 -0.09375,0 -0.1054687,0.023437 -0.1523437,0.140625 -0.4335938,1.03124996 -0.9609375,1.27734371 -1.3007813,1.27734371 -0.1992187,0 -0.3046875,-0.12890625 -0.3046875,-0.45703125 0,-0.24609375 0.023437,-0.31640625 0.058594,-0.48046876 z m 0,0"
         style="fill:#ff0000;fill-opacity:1;fill-rule:nonzero;stroke:none" />
      <path
         id="path237"
         d="m 5.3305937,0.75633594 c -0.070312,0.234375 -0.2929687,0.60937496 -0.65625,0.60937496 -0.023437,0 -0.2226562,0 -0.375,-0.09375 0.28125,-0.09375 0.3046875,-0.33984371 0.3046875,-0.38671871 0,-0.15234375 -0.1171875,-0.2578125 -0.28125,-0.2578125 -0.1875,0 -0.3867187,0.1640625 -0.3867187,0.43359371 0,0.3398438 0.3867187,0.5039063 0.7265625,0.5039063 0.3164062,0 0.609375,-0.1992188 0.7851562,-0.4921875 0.1640625,0.3632812 0.5507813,0.4921875 0.8203125,0.4921875 0.8085938,0 1.2304688,-0.86718751 1.2304688,-1.06640626 0,-0.09375 -0.09375,-0.09375 -0.1054688,-0.09375 -0.1054687,0 -0.1054687,0.0351563 -0.140625,0.1171875 -0.140625,0.48046876 -0.5625,0.84374996 -0.9492187,0.84374996 -0.28125,0 -0.421875,-0.1875 -0.421875,-0.44531246 0,-0.1875 0.1640625,-0.8203125 0.3632812,-1.59375 0.1289063,-0.53906254 0.4453125,-0.71484374 0.6796875,-0.71484374 0.011719,0 0.2226563,0 0.375,0.1054687 -0.2226562,0.058594 -0.3046875,0.2578125 -0.3046875,0.37500004 0,0.15234375 0.1171875,0.2578125 0.28125,0.2578125 0.1523438,0 0.3867188,-0.12890625 0.3867188,-0.42187504 0,-0.3867187 -0.4453125,-0.5039062 -0.7265625,-0.5039062 -0.3515625,0 -0.6328125,0.2226562 -0.7851563,0.4921875 -0.1171875,-0.2929688 -0.4453125,-0.4921875 -0.8320312,-0.4921875 -0.7851563,0 -1.2304688,0.85546874 -1.2304688,1.06640624 0,0.0820312 0.1054688,0.0820312 0.1171875,0.0820312 0.09375,0 0.1054688,-0.0234375 0.140625,-0.1171875 C 4.522,-1.0835078 4.9555937,-1.3881953 5.2954375,-1.3881953 c 0.234375,0 0.421875,0.1289062 0.421875,0.46874999 0,0.12890625 -0.082031,0.48046875 -0.1523438,0.71484375 z m 0,0"
         style="fill:#ff0000;fill-opacity:1;fill-rule:nonzero;stroke:none" />
    </g>
    <path
       id="path238"
       d="m 4.5825156,-3.1888984 c 0,-0.796875 -0.046875,-1.59375 -0.3984375,-2.3320313 -0.4570312,-0.9609375 -1.2773437,-1.1132812 -1.6875,-1.1132812 -0.5976562,0 -1.3359375,0.2578125 -1.73437498,1.1835937 -0.328125,0.6914063 -0.375,1.4648438 -0.375,2.2617188 0,0.75 0.046875,1.640625 0.4453125,2.40234371 0.43359378,0.80859375 1.16015628,1.0078125 1.65234378,1.0078125 0.5390625,0 1.2890625,-0.2109375 1.734375,-1.16015625 C 4.5356406,-1.6303047 4.5825156,-2.4037422 4.5825156,-3.1888984 Z m -2.0976562,3.18749996 c -0.3867188,0 -0.984375,-0.24609375 -1.1601563,-1.20703126 -0.1054687,-0.5976562 -0.1054687,-1.5117187 -0.1054687,-2.0976562 0,-0.6445313 0,-1.3007813 0.082031,-1.8398438 0.1875,-1.1835937 0.9257813,-1.265625 1.1835938,-1.265625 0.328125,0 0.984375,0.1757813 1.171875,1.1601563 0.09375,0.5625 0.09375,1.3125 0.09375,1.9453125 0,0.75 0,1.4179687 -0.1054688,2.0625 -0.1523437,0.93749996 -0.7148437,1.24218746 -1.160156,1.24218746 z m 0,0"
       style="fill:var(--svg-text-color,#000000);fill-opacity:1;fill-rule:nonzero;stroke:none"
       aria-label="0"
       transform="matrix(1.3333333,0,0,1.3333333,309.69467,712.35733)" />
    <path
       id="path239"
       d="m 2.9305078,-6.3763984 c 0,-0.234375 0,-0.2578125 -0.234375,-0.2578125 -0.609375,0.6328125 -1.4882812,0.6328125 -1.80468749,0.6328125 v 0.3164062 c 0.19921879,0 0.78515629,0 1.30078129,-0.2578125 v 5.15625001 c 0,0.3515625 -0.035156,0.48046875 -0.9257813,0.48046875 H 0.95003906 v 0.3046875 C 1.3016016,-0.03655469 2.1570703,-0.03655469 2.5555078,-0.03655469 c 0.3984375,0 1.265625,0 1.6171875,0.03515625 v -0.3046875 H 3.8562891 c -0.9023438,0 -0.9257813,-0.1171875 -0.9257813,-0.48046875 z m 0,0"
       style="fill:var(--svg-text-color,#000000);fill-opacity:1;fill-rule:nonzero;stroke:none"
       aria-label="1"
       transform="matrix(1.3333333,0,0,1.3333333,329.62,712.35733)" />
    <path
       id="path240"
       d="m 4.5831875,-3.1888984 c 0,-0.796875 -0.046875,-1.59375 -0.3984375,-2.3320313 -0.4570313,-0.9609375 -1.2773438,-1.1132812 -1.6875,-1.1132812 -0.5976563,0 -1.3359375,0.2578125 -1.734375,1.1835937 -0.328125,0.6914063 -0.375,1.4648438 -0.375,2.2617188 0,0.75 0.046875,1.640625 0.4453125,2.40234371 0.4335937,0.80859375 1.1601562,1.0078125 1.6523437,1.0078125 0.5390625,0 1.2890625,-0.2109375 1.734375,-1.16015625 C 4.5363125,-1.6303047 4.5831875,-2.4037422 4.5831875,-3.1888984 Z m -2.0976563,3.18749996 c -0.3867187,0 -0.984375,-0.24609375 -1.1601562,-1.20703126 -0.1054688,-0.5976562 -0.1054688,-1.5117187 -0.1054688,-2.0976562 0,-0.6445313 0,-1.3007813 0.082031,-1.8398438 0.1875,-1.1835937 0.9257812,-1.265625 1.1835937,-1.265625 0.328125,0 0.984375,0.1757813 1.171875,1.1601563 0.09375,0.5625 0.09375,1.3125 0.09375,1.9453125 0,0.75 0,1.4179687 -0.1054687,2.0625 -0.1523438,0.93749996 -0.7148438,1.24218746 -1.160156,1.24218746 z m 0,0"
       style="fill:var(--svg-text-color,#000000);fill-opacity:1;fill-rule:nonzero;stroke:none"
       aria-label="0"
       transform="matrix(1.3333333,0,0,1.3333333,349.54533,712.35733)" />
    <g
       id="g240"
       aria-label="t&#10;y"
       transform="matrix(1.3333333,0,0,1.3333333,369.62133,712.35733)">
      <path
         id="path241"
         d="m 2.0506016,-3.9857734 h 0.9375 c 0.1992187,0 0.3046875,0 0.3046875,-0.1992188 0,-0.1054687 -0.1054688,-0.1054687 -0.28125,-0.1054687 H 2.1326328 c 0.3632813,-1.4179688 0.4101563,-1.6171875 0.4101563,-1.6757813 0,-0.1757812 -0.1171875,-0.2695312 -0.2929688,-0.2695312 -0.023437,0 -0.3046875,0.011719 -0.3984375,0.3515625 l -0.3867187,1.59375 H 0.52716406 c -0.19921875,0 -0.29296875,0 -0.29296875,0.1875 0,0.1171875 0.0703125,0.1171875 0.26953125,0.1171875 H 1.3826328 c -0.71484374,2.8242187 -0.74999999,2.99999996 -0.74999999,3.17578121 0,0.5390625 0.37499999,0.9140625 0.91406249,0.9140625 1.0078125,0 1.5820313,-1.45312501 1.5820313,-1.53515621 0,-0.09375 -0.082031,-0.09375 -0.1171875,-0.09375 -0.09375,0 -0.1054688,0.023437 -0.1523438,0.140625 -0.4335937,1.03124996 -0.9609375,1.27734371 -1.3007812,1.27734371 -0.1992188,0 -0.3046875,-0.12890625 -0.3046875,-0.45703125 0,-0.24609375 0.023437,-0.31640625 0.058594,-0.48046876 z m 0,0"
         style="fill:#00ff00;fill-opacity:1;fill-rule:nonzero;stroke:none" />
      <path
         id="path242"
         d="m 7.4763828,-1.1322578 c 0.023437,-0.1054688 0.023437,-0.1171875 0.023437,-0.1523438 0,-0.140625 -0.1054687,-0.2226562 -0.2226562,-0.2226562 -0.082031,0 -0.2109375,0.035156 -0.2929688,0.1640625 -0.023437,0.035156 -0.070312,0.2578125 -0.1054687,0.39843749 l -0.1523438,0.5859375 c -0.035156,0.1640625 -0.2578125,1.04296875 -0.28125,1.125 0,0 -0.3046875,0.59765621 -0.8554687,0.59765621 -0.46875,0 -0.46875,-0.44531246 -0.46875,-0.57421871 0,-0.375 0.1523437,-0.8203125 0.3632812,-1.359375 0.082031,-0.22265625 0.1171875,-0.3046875 0.1171875,-0.421875 0,-0.32812499 -0.28125,-0.58593749 -0.65625,-0.58593749 -0.703125,0 -1.0195312,0.94921874 -1.0195312,1.06640624 0,0.0820313 0.09375,0.0820313 0.1171875,0.0820313 0.09375,0 0.1054687,-0.0351563 0.1289062,-0.10546875 0.1757813,-0.58593759 0.46875,-0.85546869 0.75,-0.85546869 0.1171875,0 0.1757813,0.082031 0.1757813,0.2460937 0,0.16406249 -0.058594,0.31640624 -0.09375,0.41015624 -0.3398438,0.84375 -0.4101563,1.1015625 -0.4101563,1.40625 0,0.1171875 0,0.44531246 0.2695313,0.67968746 0.2226562,0.1757813 0.515625,0.2109375 0.703125,0.2109375 0.28125,0 0.5273437,-0.1054687 0.7617187,-0.3164062 -0.09375,0.3867187 -0.1757812,0.6796875 -0.46875,1.03125 -0.1875,0.2109375 -0.4570312,0.4453125 -0.8320312,0.4453125 -0.046875,0 -0.375,0 -0.5273438,-0.234375 0.375,-0.035156 0.375,-0.375 0.375,-0.3867187 0,-0.2226563 -0.1992187,-0.2578125 -0.2695312,-0.2578125 -0.1757813,0 -0.3984375,0.140625 -0.3984375,0.4570312 0,0.3515625 0.328125,0.609375 0.8320312,0.609375 0.703125,0 1.5585938,-0.5390625 1.7695313,-1.40625 z m 0,0"
         style="fill:#00ff00;fill-opacity:1;fill-rule:nonzero;stroke:none" />
    </g>
    <path
       id="path243"
       d="m 4.5825156,-3.1878438 c 0,-0.796875 -0.046875,-1.59375 -0.3984375,-2.3320312 -0.4570312,-0.9609375 -1.2773437,-1.1132813 -1.6875,-1.1132813 -0.5976562,0 -1.3359375,0.2578125 -1.73437498,1.1835938 -0.328125,0.6914062 -0.375,1.4648437 -0.375,2.2617187 0,0.75 0.046875,1.640625 0.4453125,2.4023438 0.43359378,0.80859375 1.16015628,1.0078125 1.65234378,1.0078125 0.5390625,0 1.2890625,-0.2109375 1.734375,-1.16015625 C 4.5356406,-1.62925 4.5825156,-2.4026875 4.5825156,-3.1878438 Z M 2.4848594,-3.4375e-4 c -0.3867188,0 -0.984375,-0.24609375 -1.1601563,-1.20703125 -0.1054687,-0.5976563 -0.1054687,-1.5117188 -0.1054687,-2.0976563 0,-0.6445312 0,-1.3007812 0.082031,-1.8398437 0.1875,-1.1835938 0.9257813,-1.265625 1.1835938,-1.265625 0.328125,0 0.984375,0.1757812 1.171875,1.1601562 0.09375,0.5625 0.09375,1.3125 0.09375,1.9453125 0,0.75 0,1.4179688 -0.1054688,2.0625 -0.1523437,0.93750005 -0.7148437,1.24218755 -1.160156,1.24218755 z m 0,0"
       style="fill:var(--svg-text-color,#000000);fill-opacity:1;fill-rule:nonzero;stroke:none"
       aria-label="0"
       transform="matrix(1.3333333,0,0,1.3333333,309.69467,728.29733)" />
    <path
       id="path244"
       d="m 4.5809219,-3.1878438 c 0,-0.796875 -0.046875,-1.59375 -0.3984375,-2.3320312 -0.4570313,-0.9609375 -1.2773438,-1.1132813 -1.6875,-1.1132813 -0.5976563,0 -1.3359375,0.2578125 -1.73437503,1.1835938 -0.328125,0.6914062 -0.375,1.4648437 -0.375,2.2617187 0,0.75 0.046875,1.640625 0.4453125,2.4023438 0.43359373,0.80859375 1.16015623,1.0078125 1.65234373,1.0078125 0.5390625,0 1.2890625,-0.2109375 1.734375,-1.16015625 C 4.5340469,-1.62925 4.5809219,-2.4026875 4.5809219,-3.1878438 Z M 2.4832656,-3.4375e-4 c -0.3867187,0 -0.984375,-0.24609375 -1.1601562,-1.20703125 -0.1054688,-0.5976563 -0.1054688,-1.5117188 -0.1054688,-2.0976563 0,-0.6445312 0,-1.3007812 0.082031,-1.8398437 0.1875,-1.1835938 0.9257812,-1.265625 1.1835937,-1.265625 0.328125,0 0.984375,0.1757812 1.171875,1.1601562 0.09375,0.5625 0.09375,1.3125 0.09375,1.9453125 0,0.75 0,1.4179688 -0.1054687,2.0625 -0.1523438,0.93750005 -0.7148438,1.24218755 -1.160156,1.24218755 z m 0,0"
       style="fill:var(--svg-text-color,#000000);fill-opacity:1;fill-rule:nonzero;stroke:none"
       aria-label="0"
       transform="matrix(1.3333333,0,0,1.3333333,329.61867,728.29733)" />
    <path
       id="path245"
       d="m 2.9289141,-6.3753438 c 0,-0.234375 0,-0.2578125 -0.234375,-0.2578125 -0.609375,0.6328125 -1.4882813,0.6328125 -1.80468754,0.6328125 v 0.3164063 c 0.19921874,0 0.78515624,0 1.30078124,-0.2578125 v 5.15625 c 0,0.3515625 -0.035156,0.48046875 -0.9257812,0.48046875 H 0.94844531 v 0.3046875 C 1.3000078,-0.0355 2.1554766,-0.0355 2.5539141,-0.0355 c 0.3984375,0 1.265625,0 1.6171875,0.03515625 v -0.3046875 H 3.8546953 c -0.9023437,0 -0.9257812,-0.1171875 -0.9257812,-0.48046875 z m 0,0"
       style="fill:var(--svg-text-color,#000000);fill-opacity:1;fill-rule:nonzero;stroke:none"
       aria-label="1"
       transform="matrix(1.3333333,0,0,1.3333333,349.544,728.29733)" />
    <g
       id="g245"
       aria-label="t&#10;z"
       transform="matrix(1.3333333,0,0,1.3333333,369.75333,728.29733)">
      <path
         id="path246"
         d="m 2.0512109,-3.9847188 h 0.9375 c 0.1992188,0 0.3046875,0 0.3046875,-0.1992187 0,-0.1054688 -0.1054687,-0.1054688 -0.28125,-0.1054688 H 2.1332422 c 0.3632812,-1.4179687 0.4101562,-1.6171875 0.4101562,-1.6757812 0,-0.1757813 -0.1171875,-0.2695313 -0.2929687,-0.2695313 -0.023437,0 -0.3046875,0.011719 -0.3984375,0.3515625 l -0.3867188,1.59375 H 0.52777344 c -0.19921875,0 -0.29296875,0 -0.29296875,0.1875 0,0.1171875 0.0703125,0.1171875 0.26953125,0.1171875 H 1.3832422 C 0.66839844,-1.1605 0.63324219,-0.98471875 0.63324219,-0.8089375 c 0,0.5390625 0.37500001,0.9140625 0.91406251,0.9140625 1.0078125,0 1.5820312,-1.453125 1.5820312,-1.5351563 0,-0.09375 -0.082031,-0.09375 -0.1171875,-0.09375 -0.09375,0 -0.1054687,0.023437 -0.1523437,0.140625 -0.4335938,1.03125005 -0.9609375,1.2773438 -1.3007813,1.2773438 -0.1992187,0 -0.3046875,-0.12890625 -0.3046875,-0.45703125 0,-0.24609375 0.023437,-0.31640625 0.058594,-0.48046875 z m 0,0"
         style="fill:#0000ff;fill-opacity:1;fill-rule:nonzero;stroke:none" />
      <path
         id="path247"
         d="m 4.7699609,0.88442187 c 0.1757813,-0.1875 0.3046875,-0.31640625 0.9023438,-0.796875 0.140625,-0.1171875 0.6679687,-0.52734375 0.8671875,-0.7265625 0.421875,-0.42187497 0.6914062,-0.77343747 0.6914062,-0.85546877 0,-0.082031 -0.09375,-0.082031 -0.1171875,-0.082031 -0.058594,0 -0.082031,0.011719 -0.1171875,0.070312 -0.2226562,0.3164062 -0.3632812,0.421875 -0.5273437,0.421875 -0.09375,0 -0.1992188,-0.011719 -0.3984375,-0.2109375 -0.2460938,-0.234375 -0.3984375,-0.28125 -0.5507813,-0.28125 -0.5625,0 -0.9375,0.59765622 -0.9375,0.80859372 0,0.0703125 0.070312,0.0820313 0.1171875,0.0820313 0.082031,0 0.09375,-0.0117188 0.1289063,-0.09375 0.1054687,-0.24609372 0.4921875,-0.25781242 0.5976562,-0.25781242 0.1640625,0 0.3515625,0.0468749 0.4453125,0.0585936 0.3867188,0.09375 0.4335938,0.09375 0.609375,0.09375 -0.1875,0.1875 -0.3046875,0.3046875 -0.9726562,0.84375 C 4.9691797,0.38051562 4.7816797,0.55629687 4.6410547,0.69692187 4.2308984,1.1070781 4.0199609,1.4117656 4.0199609,1.4820781 c 0,0.082031 0.09375,0.082031 0.1171875,0.082031 0.070312,0 0.09375,-0.011719 0.1289063,-0.070312 0.1875,-0.2695313 0.3984375,-0.421875 0.6328125,-0.421875 0.082031,0 0.1875,0 0.375,0.1757812 0.2226562,0.2109375 0.3632812,0.3164063 0.5859375,0.3164063 0.7382812,0 1.2070312,-0.84375003 1.2070312,-1.07812503 0,-0.0820313 -0.070312,-0.09375 -0.1171875,-0.09375 -0.082031,0 -0.09375,0.0351563 -0.1289062,0.1171875 C 6.6918359,0.84926562 6.2816797,1.0250469 5.9418359,1.0250469 c -0.1640625,0 -0.3398437,-0.0351563 -0.515625,-0.0820313 -0.3164062,-0.0703125 -0.375,-0.0703125 -0.4921875,-0.0703125 -0.023437,0 -0.1171875,0 -0.1640625,0.0117188 z m 0,0"
         style="fill:#0000ff;fill-opacity:1;fill-rule:nonzero;stroke:none" />
    </g>
    <path
       id="path248"
       d="m 4.5805859,-3.1867891 c 0,-0.796875 -0.046875,-1.59375 -0.3984375,-2.3320312 -0.4570312,-0.9609375 -1.2773437,-1.1132813 -1.6875,-1.1132813 -0.5976562,0 -1.3359375,0.2578125 -1.73437496,1.1835938 -0.328125,0.6914062 -0.375,1.4648437 -0.375,2.2617187 0,0.75 0.046875,1.640625 0.4453125,2.40234379 0.43359376,0.80859375 1.16015626,1.0078125 1.65234376,1.0078125 0.5390625,0 1.2890625,-0.2109375 1.734375,-1.16015625 C 4.5337109,-1.6281953 4.5805859,-2.4016328 4.5805859,-3.1867891 Z M 2.4829297,7.109375e-4 c -0.3867188,0 -0.984375,-0.2460937475 -1.1601563,-1.2070312375 -0.1054687,-0.5976563 -0.1054687,-1.5117188 -0.1054687,-2.0976563 0,-0.6445312 0,-1.3007812 0.082031,-1.8398437 0.1875,-1.1835938 0.9257813,-1.265625 1.1835938,-1.265625 0.328125,0 0.984375,0.1757812 1.171875,1.1601562 0.09375,0.5625 0.09375,1.3125 0.09375,1.9453125 0,0.75 0,1.4179688 -0.1054688,2.0625 C 3.4907422,-0.30397656 2.9282422,7.109375e-4 2.4829297,7.109375e-4 Z m 0,0"
       style="fill:var(--svg-text-color,#000000);fill-opacity:1;fill-rule:nonzero;stroke:none"
       aria-label="0"
       transform="matrix(1.3333333,0,0,1.3333333,309.69333,744.23733)" />
    <path
       id="path249"
       d="m 4.5809219,-3.1867891 c 0,-0.796875 -0.046875,-1.59375 -0.3984375,-2.3320312 -0.4570313,-0.9609375 -1.2773438,-1.1132813 -1.6875,-1.1132813 -0.5976563,0 -1.3359375,0.2578125 -1.73437503,1.1835938 -0.328125,0.6914062 -0.375,1.4648437 -0.375,2.2617187 0,0.75 0.046875,1.640625 0.4453125,2.40234379 0.43359373,0.80859375 1.16015623,1.0078125 1.65234373,1.0078125 0.5390625,0 1.2890625,-0.2109375 1.734375,-1.16015625 C 4.5340469,-1.6281953 4.5809219,-2.4016328 4.5809219,-3.1867891 Z M 2.4832656,7.109375e-4 c -0.3867187,0 -0.984375,-0.2460937475 -1.1601562,-1.2070312375 -0.1054688,-0.5976563 -0.1054688,-1.5117188 -0.1054688,-2.0976563 0,-0.6445312 0,-1.3007812 0.082031,-1.8398437 0.1875,-1.1835938 0.9257812,-1.265625 1.1835937,-1.265625 0.328125,0 0.984375,0.1757812 1.171875,1.1601562 0.09375,0.5625 0.09375,1.3125 0.09375,1.9453125 0,0.75 0,1.4179688 -0.1054687,2.0625 C 3.4910781,-0.30397656 2.9285781,7.109375e-4 2.4832656,7.109375e-4 Z m 0,0"
       style="fill:var(--svg-text-color,#000000);fill-opacity:1;fill-rule:nonzero;stroke:none"
       aria-label="0"
       transform="matrix(1.3333333,0,0,1.3333333,329.61867,744.23733)" />
    <path
       id="path250"
       d="m 4.5812578,-3.1867891 c 0,-0.796875 -0.046875,-1.59375 -0.3984375,-2.3320312 -0.4570312,-0.9609375 -1.2773437,-1.1132813 -1.6875,-1.1132813 -0.5976562,0 -1.3359375,0.2578125 -1.73437499,1.1835938 -0.328125,0.6914062 -0.375,1.4648437 -0.375,2.2617187 0,0.75 0.046875,1.640625 0.4453125,2.40234379 0.43359379,0.80859375 1.16015629,1.0078125 1.65234379,1.0078125 0.5390625,0 1.2890625,-0.2109375 1.734375,-1.16015625 C 4.5343828,-1.6281953 4.5812578,-2.4016328 4.5812578,-3.1867891 Z M 2.4836016,7.109375e-4 c -0.3867188,0 -0.984375,-0.2460937475 -1.1601563,-1.2070312375 -0.1054687,-0.5976563 -0.1054687,-1.5117188 -0.1054687,-2.0976563 0,-0.6445312 0,-1.3007812 0.082031,-1.8398437 0.1875,-1.1835938 0.9257813,-1.265625 1.1835938,-1.265625 0.328125,0 0.984375,0.1757812 1.171875,1.1601562 0.09375,0.5625 0.09375,1.3125 0.09375,1.9453125 0,0.75 0,1.4179688 -0.1054688,2.0625 C 3.4914141,-0.30397656 2.9289141,7.109375e-4 2.4836016,7.109375e-4 Z m 0,0"
       style="fill:var(--svg-text-color,#000000);fill-opacity:1;fill-rule:nonzero;stroke:none"
       aria-label="0"
       transform="matrix(1.3333333,0,0,1.3333333,349.544,744.23733)" />
    <path
       id="path251"
       d="m 2.9296562,-6.3742891 c 0,-0.234375 0,-0.2578125 -0.234375,-0.2578125 C 2.0859062,-5.9992891 1.207,-5.9992891 0.89059375,-5.9992891 v 0.3164063 c 0.19921875,0 0.78515625,0 1.30078125,-0.2578125 v 5.15624999 c 0,0.3515625 -0.035156,0.48046875 -0.9257813,0.48046875 H 0.9491875 V 7.109375e-4 C 1.30075,-0.03444531 2.1562187,-0.03444531 2.5546562,-0.03444531 c 0.3984375,0 1.265625,0 1.6171875,0.0351562475 V -0.30397656 H 3.8554375 c -0.9023438,0 -0.9257813,-0.1171875 -0.9257813,-0.48046875 z m 0,0"
       style="fill:var(--svg-text-color,#000000);fill-opacity:1;fill-rule:nonzero;stroke:none"
       aria-label="1"
       transform="matrix(1.3333333,0,0,1.3333333,371.89067,744.23733)" />
    <path
       id="path252"
       d="M 2.6941562,17.530484 H 3.3855625 V -0.38748437 H 0.06915625 V 0.30392188 H 2.6941562 Z m 0,5.991211 h 0.6914063 v -6 H 2.6941562 Z m 0,5.979493 h 0.6914063 v -6 H 2.6941562 Z m 0,17.226562 H 0.06915625 v 0.679688 H 3.3855625 V 29.489469 H 2.6941562 Z m 0,0"
       style="fill:var(--svg-text-color,#000000);fill-opacity:1;fill-rule:nonzero;stroke:none"
       aria-label="&#10;&#10;&#10;"
       transform="matrix(1.3333333,0,0,1.3333333,380.95467,686.32133)" />
    <path
       id="path253"
       d="M 3.2464141,17.530484 H 3.9378203 V 0.30392188 h 2.625 V -0.38748437 H 3.2464141 Z m 0,5.991211 h 0.6914062 v -6 H 3.2464141 Z m 0,5.979493 h 0.6914062 v -6 H 3.2464141 Z m 0,17.90625 H 6.5628203 V 46.72775 h -2.625 V 29.489469 H 3.2464141 Z m 0,0"
       style="fill:var(--svg-text-color,#000000);fill-opacity:1;fill-rule:nonzero;stroke:none"
       aria-label="&#10;&#10;&#10;"
       transform="matrix(1.3333333,0,0,1.3333333,416.37067,686.32133)" />
    <path
       id="path254"
       d="m 2.9300156,-6.3745234 c 0,-0.234375 0,-0.2578125 -0.234375,-0.2578125 -0.609375,0.6328125 -1.4882812,0.6328125 -1.80468748,0.6328125 v 0.3164062 c 0.19921878,0 0.78515628,0 1.30078128,-0.2578125 v 5.15625001 c 0,0.3515625 -0.035156,0.48046875 -0.9257813,0.48046875 H 0.94954687 V 4.765625e-4 C 1.3011094,-0.03467969 2.1565781,-0.03467969 2.5550156,-0.03467969 c 0.3984375,0 1.265625,0 1.6171875,0.0351562525 V -0.30421094 H 3.8557969 c -0.9023438,0 -0.9257813,-0.1171875 -0.9257813,-0.48046875 z m 0,0"
       style="fill:var(--svg-text-color,#000000);fill-opacity:1;fill-rule:nonzero;stroke:none"
       aria-label="1"
       transform="matrix(1.3333333,0,0,1.3333333,427.648,696.41733)" />
    <path
       id="path255"
       d="m 4.58225,-3.1870234 c 0,-0.796875 -0.046875,-1.59375 -0.3984375,-2.3320313 -0.4570313,-0.9609375 -1.2773438,-1.1132812 -1.6875,-1.1132812 -0.5976563,0 -1.3359375,0.2578125 -1.734375,1.1835937 -0.328125,0.6914063 -0.375,1.4648438 -0.375,2.2617188 0,0.75 0.046875,1.640625 0.4453125,2.40234371 0.4335937,0.80859375 1.1601562,1.0078125 1.6523437,1.0078125 0.5390625,0 1.2890625,-0.2109375 1.734375,-1.16015625 C 4.535375,-1.6284297 4.58225,-2.4018672 4.58225,-3.1870234 Z M 2.4845937,4.765625e-4 c -0.3867187,0 -0.984375,-0.2460937525 -1.1601562,-1.2070312625 -0.1054688,-0.5976562 -0.1054688,-1.5117187 -0.1054688,-2.0976562 0,-0.6445313 0,-1.3007813 0.082031,-1.8398438 0.1875,-1.1835937 0.9257812,-1.265625 1.1835937,-1.265625 0.328125,0 0.984375,0.1757813 1.171875,1.1601563 0.09375,0.5625 0.09375,1.3125 0.09375,1.9453125 0,0.75 0,1.4179687 -0.1054687,2.0625 C 3.4924062,-0.30421094 2.9299062,4.765625e-4 2.4845937,4.765625e-4 Z m 0,0"
       style="fill:var(--svg-text-color,#000000);fill-opacity:1;fill-rule:nonzero;stroke:none"
       aria-label="0"
       transform="matrix(1.3333333,0,0,1.3333333,452.26533,696.41733)" />
    <path
       id="path256"
       d="m 4.5812734,-3.1870234 c 0,-0.796875 -0.046875,-1.59375 -0.3984375,-2.3320313 -0.4570312,-0.9609375 -1.2773437,-1.1132812 -1.6875,-1.1132812 -0.5976562,0 -1.3359375,0.2578125 -1.73437496,1.1835937 -0.328125,0.6914063 -0.375,1.4648438 -0.375,2.2617188 0,0.75 0.046875,1.640625 0.4453125,2.40234371 0.43359376,0.80859375 1.16015626,1.0078125 1.65234376,1.0078125 0.5390625,0 1.2890625,-0.2109375 1.734375,-1.16015625 C 4.5343984,-1.6284297 4.5812734,-2.4018672 4.5812734,-3.1870234 Z M 2.4836172,4.765625e-4 c -0.3867188,0 -0.984375,-0.2460937525 -1.1601563,-1.2070312625 -0.1054687,-0.5976562 -0.1054687,-1.5117187 -0.1054687,-2.0976562 0,-0.6445313 0,-1.3007813 0.082031,-1.8398438 0.1875,-1.1835937 0.9257813,-1.265625 1.1835938,-1.265625 0.328125,0 0.984375,0.1757813 1.171875,1.1601563 0.09375,0.5625 0.09375,1.3125 0.09375,1.9453125 0,0.75 0,1.4179687 -0.1054688,2.0625 C 3.4914297,-0.30421094 2.9289297,4.765625e-4 2.4836172,4.765625e-4 Z m 0,0"
       style="fill:var(--svg-text-color,#000000);fill-opacity:1;fill-rule:nonzero;stroke:none"
       aria-label="0"
       transform="matrix(1.3333333,0,0,1.3333333,476.59867,696.41733)" />
    <path
       id="path257"
       d="m 4.5811484,-3.1870234 c 0,-0.796875 -0.046875,-1.59375 -0.3984375,-2.3320313 -0.4570312,-0.9609375 -1.2773437,-1.1132812 -1.6875,-1.1132812 -0.5976562,0 -1.3359375,0.2578125 -1.73437496,1.1835937 -0.328125,0.6914063 -0.375,1.4648438 -0.375,2.2617188 0,0.75 0.046875,1.640625 0.4453125,2.40234371 0.43359376,0.80859375 1.16015626,1.0078125 1.65234376,1.0078125 0.5390625,0 1.2890625,-0.2109375 1.734375,-1.16015625 C 4.5342734,-1.6284297 4.5811484,-2.4018672 4.5811484,-3.1870234 Z M 2.4834922,4.765625e-4 c -0.3867188,0 -0.984375,-0.2460937525 -1.1601563,-1.2070312625 -0.1054687,-0.5976562 -0.1054687,-1.5117187 -0.1054687,-2.0976562 0,-0.6445313 0,-1.3007813 0.082031,-1.8398438 0.1875,-1.1835937 0.9257813,-1.265625 1.1835938,-1.265625 0.328125,0 0.984375,0.1757813 1.171875,1.1601563 0.09375,0.5625 0.09375,1.3125 0.09375,1.9453125 0,0.75 0,1.4179687 -0.1054688,2.0625 C 3.4913047,-0.30421094 2.9288047,4.765625e-4 2.4834922,4.765625e-4 Z m 0,0"
       style="fill:var(--svg-text-color,#000000);fill-opacity:1;fill-rule:nonzero;stroke:none"
       aria-label="0"
       transform="matrix(1.3333333,0,0,1.3333333,498.66133,696.41733)" />
    <path
       id="path258"
       d="m 4.5823594,-3.1888984 c 0,-0.796875 -0.046875,-1.59375 -0.3984375,-2.3320313 -0.4570313,-0.9609375 -1.2773438,-1.1132812 -1.6875,-1.1132812 -0.5976563,0 -1.3359375,0.2578125 -1.73437503,1.1835937 -0.328125,0.6914063 -0.375,1.4648438 -0.375,2.2617188 0,0.75 0.046875,1.640625 0.4453125,2.40234371 0.43359373,0.80859375 1.16015623,1.0078125 1.65234373,1.0078125 0.5390625,0 1.2890625,-0.2109375 1.734375,-1.16015625 C 4.5354844,-1.6303047 4.5823594,-2.4037422 4.5823594,-3.1888984 Z m -2.0976563,3.18749996 c -0.3867187,0 -0.984375,-0.24609375 -1.1601562,-1.20703126 -0.1054688,-0.5976562 -0.1054688,-1.5117187 -0.1054688,-2.0976562 0,-0.6445313 0,-1.3007813 0.082031,-1.8398438 0.1875,-1.1835937 0.9257812,-1.265625 1.1835937,-1.265625 0.328125,0 0.984375,0.1757813 1.171875,1.1601563 0.09375,0.5625 0.09375,1.3125 0.09375,1.9453125 0,0.75 0,1.4179687 -0.1054687,2.0625 -0.1523438,0.93749996 -0.7148438,1.24218746 -1.160156,1.24218746 z m 0,0"
       style="fill:var(--svg-text-color,#000000);fill-opacity:1;fill-rule:nonzero;stroke:none"
       aria-label="0"
       transform="matrix(1.3333333,0,0,1.3333333,427.648,712.35733)" />
    <path
       id="path259"
       d="m 2.9299062,-6.3763984 c 0,-0.234375 0,-0.2578125 -0.234375,-0.2578125 -0.609375,0.6328125 -1.4882812,0.6328125 -1.80468745,0.6328125 v 0.3164062 c 0.19921875,0 0.78515625,0 1.30078125,-0.2578125 v 5.15625001 c 0,0.3515625 -0.035156,0.48046875 -0.9257813,0.48046875 H 0.9494375 v 0.3046875 C 1.301,-0.03655469 2.1564687,-0.03655469 2.5549062,-0.03655469 c 0.3984375,0 1.265625,0 1.6171875,0.03515625 v -0.3046875 H 3.8556875 c -0.9023438,0 -0.9257813,-0.1171875 -0.9257813,-0.48046875 z m 0,0"
       style="fill:var(--svg-text-color,#000000);fill-opacity:1;fill-rule:nonzero;stroke:none"
       aria-label="1"
       transform="matrix(1.3333333,0,0,1.3333333,452.26533,712.35733)" />
    <path
       id="path260"
       d="m 4.5812734,-3.1888984 c 0,-0.796875 -0.046875,-1.59375 -0.3984375,-2.3320313 -0.4570312,-0.9609375 -1.2773437,-1.1132812 -1.6875,-1.1132812 -0.5976562,0 -1.3359375,0.2578125 -1.73437496,1.1835937 -0.328125,0.6914063 -0.375,1.4648438 -0.375,2.2617188 0,0.75 0.046875,1.640625 0.4453125,2.40234371 0.43359376,0.80859375 1.16015626,1.0078125 1.65234376,1.0078125 0.5390625,0 1.2890625,-0.2109375 1.734375,-1.16015625 C 4.5343984,-1.6303047 4.5812734,-2.4037422 4.5812734,-3.1888984 Z m -2.0976562,3.18749996 c -0.3867188,0 -0.984375,-0.24609375 -1.1601563,-1.20703126 -0.1054687,-0.5976562 -0.1054687,-1.5117187 -0.1054687,-2.0976562 0,-0.6445313 0,-1.3007813 0.082031,-1.8398438 0.1875,-1.1835937 0.9257813,-1.265625 1.1835938,-1.265625 0.328125,0 0.984375,0.1757813 1.171875,1.1601563 0.09375,0.5625 0.09375,1.3125 0.09375,1.9453125 0,0.75 0,1.4179687 -0.1054688,2.0625 -0.1523437,0.93749996 -0.7148437,1.24218746 -1.160156,1.24218746 z m 0,0"
       style="fill:var(--svg-text-color,#000000);fill-opacity:1;fill-rule:nonzero;stroke:none"
       aria-label="0"
       transform="matrix(1.3333333,0,0,1.3333333,476.59867,712.35733)" />
    <path
       id="path261"
       d="m 4.5811484,-3.1888984 c 0,-0.796875 -0.046875,-1.59375 -0.3984375,-2.3320313 -0.4570312,-0.9609375 -1.2773437,-1.1132812 -1.6875,-1.1132812 -0.5976562,0 -1.3359375,0.2578125 -1.73437496,1.1835937 -0.328125,0.6914063 -0.375,1.4648438 -0.375,2.2617188 0,0.75 0.046875,1.640625 0.4453125,2.40234371 0.43359376,0.80859375 1.16015626,1.0078125 1.65234376,1.0078125 0.5390625,0 1.2890625,-0.2109375 1.734375,-1.16015625 C 4.5342734,-1.6303047 4.5811484,-2.4037422 4.5811484,-3.1888984 Z m -2.0976562,3.18749996 c -0.3867188,0 -0.984375,-0.24609375 -1.1601563,-1.20703126 -0.1054687,-0.5976562 -0.1054687,-1.5117187 -0.1054687,-2.0976562 0,-0.6445313 0,-1.3007813 0.082031,-1.8398438 0.1875,-1.1835937 0.9257813,-1.265625 1.1835938,-1.265625 0.328125,0 0.984375,0.1757813 1.171875,1.1601563 0.09375,0.5625 0.09375,1.3125 0.09375,1.9453125 0,0.75 0,1.4179687 -0.1054688,2.0625 -0.1523437,0.93749996 -0.7148437,1.24218746 -1.160156,1.24218746 z m 0,0"
       style="fill:var(--svg-text-color,#000000);fill-opacity:1;fill-rule:nonzero;stroke:none"
       aria-label="0"
       transform="matrix(1.3333333,0,0,1.3333333,498.66133,712.35733)" />
    <path
       id="path262"
       d="m 4.5823594,-3.1878437 c 0,-0.796875 -0.046875,-1.59375 -0.3984375,-2.3320313 -0.4570313,-0.9609375 -1.2773438,-1.1132812 -1.6875,-1.1132812 -0.5976563,0 -1.3359375,0.2578125 -1.73437503,1.1835937 -0.328125,0.6914063 -0.375,1.4648438 -0.375,2.2617188 0,0.75 0.046875,1.640625 0.4453125,2.4023437 0.43359373,0.80859375 1.16015623,1.0078125 1.65234373,1.0078125 0.5390625,0 1.2890625,-0.2109375 1.734375,-1.16015625 C 4.5354844,-1.62925 4.5823594,-2.4026875 4.5823594,-3.1878437 Z M 2.4847031,-3.4375e-4 c -0.3867187,0 -0.984375,-0.24609375 -1.1601562,-1.20703125 -0.1054688,-0.5976562 -0.1054688,-1.5117187 -0.1054688,-2.0976562 0,-0.6445313 0,-1.3007813 0.082031,-1.8398438 0.1875,-1.1835937 0.9257812,-1.265625 1.1835937,-1.265625 0.328125,0 0.984375,0.1757813 1.171875,1.1601563 0.09375,0.5625 0.09375,1.3125 0.09375,1.9453125 0,0.75 0,1.4179687 -0.1054687,2.0625 -0.1523438,0.93749995 -0.7148438,1.24218745 -1.160156,1.24218745 z m 0,0"
       style="fill:var(--svg-text-color,#000000);fill-opacity:1;fill-rule:nonzero;stroke:none"
       aria-label="0"
       transform="matrix(1.3333333,0,0,1.3333333,427.648,728.29733)" />
    <path
       id="path263"
       d="m 4.58225,-3.1878437 c 0,-0.796875 -0.046875,-1.59375 -0.3984375,-2.3320313 -0.4570313,-0.9609375 -1.2773438,-1.1132812 -1.6875,-1.1132812 -0.5976563,0 -1.3359375,0.2578125 -1.734375,1.1835937 -0.328125,0.6914063 -0.375,1.4648438 -0.375,2.2617188 0,0.75 0.046875,1.640625 0.4453125,2.4023437 0.4335937,0.80859375 1.1601562,1.0078125 1.6523437,1.0078125 0.5390625,0 1.2890625,-0.2109375 1.734375,-1.16015625 C 4.535375,-1.62925 4.58225,-2.4026875 4.58225,-3.1878437 Z M 2.4845937,-3.4375e-4 c -0.3867187,0 -0.984375,-0.24609375 -1.1601562,-1.20703125 -0.1054688,-0.5976562 -0.1054688,-1.5117187 -0.1054688,-2.0976562 0,-0.6445313 0,-1.3007813 0.082031,-1.8398438 0.1875,-1.1835937 0.9257812,-1.265625 1.1835937,-1.265625 0.328125,0 0.984375,0.1757813 1.171875,1.1601563 0.09375,0.5625 0.09375,1.3125 0.09375,1.9453125 0,0.75 0,1.4179687 -0.1054687,2.0625 -0.1523438,0.93749995 -0.7148438,1.24218745 -1.160156,1.24218745 z m 0,0"
       style="fill:var(--svg-text-color,#000000);fill-opacity:1;fill-rule:nonzero;stroke:none"
       aria-label="0"
       transform="matrix(1.3333333,0,0,1.3333333,452.26533,728.29733)" />
    <path
       id="path264"
       d="m 2.9289297,-6.3753437 c 0,-0.234375 0,-0.2578125 -0.234375,-0.2578125 -0.609375,0.6328125 -1.4882813,0.6328125 -1.80468751,0.6328125 v 0.3164062 c 0.19921871,0 0.78515621,0 1.30078121,-0.2578125 v 5.15625 c 0,0.3515625 -0.035156,0.48046875 -0.9257812,0.48046875 H 0.94846094 v 0.3046875 C 1.3000234,-0.0355 2.1554922,-0.0355 2.5539297,-0.0355 c 0.3984375,0 1.265625,0 1.6171875,0.03515625 v -0.3046875 H 3.8547109 c -0.9023437,0 -0.9257812,-0.1171875 -0.9257812,-0.48046875 z m 0,0"
       style="fill:var(--svg-text-color,#000000);fill-opacity:1;fill-rule:nonzero;stroke:none"
       aria-label="1"
       transform="matrix(1.3333333,0,0,1.3333333,476.59867,728.29733)" />
    <path
       id="path265"
       d="m 4.5811484,-3.1878437 c 0,-0.796875 -0.046875,-1.59375 -0.3984375,-2.3320313 -0.4570312,-0.9609375 -1.2773437,-1.1132812 -1.6875,-1.1132812 -0.5976562,0 -1.3359375,0.2578125 -1.73437496,1.1835937 -0.328125,0.6914063 -0.375,1.4648438 -0.375,2.2617188 0,0.75 0.046875,1.640625 0.4453125,2.4023437 0.43359376,0.80859375 1.16015626,1.0078125 1.65234376,1.0078125 0.5390625,0 1.2890625,-0.2109375 1.734375,-1.16015625 C 4.5342734,-1.62925 4.5811484,-2.4026875 4.5811484,-3.1878437 Z M 2.4834922,-3.4375e-4 c -0.3867188,0 -0.984375,-0.24609375 -1.1601563,-1.20703125 -0.1054687,-0.5976562 -0.1054687,-1.5117187 -0.1054687,-2.0976562 0,-0.6445313 0,-1.3007813 0.082031,-1.8398438 0.1875,-1.1835937 0.9257813,-1.265625 1.1835938,-1.265625 0.328125,0 0.984375,0.1757813 1.171875,1.1601563 0.09375,0.5625 0.09375,1.3125 0.09375,1.9453125 0,0.75 0,1.4179687 -0.1054688,2.0625 -0.1523437,0.93749995 -0.7148437,1.24218745 -1.160156,1.24218745 z m 0,0"
       style="fill:var(--svg-text-color,#000000);fill-opacity:1;fill-rule:nonzero;stroke:none"
       aria-label="0"
       transform="matrix(1.3333333,0,0,1.3333333,498.66133,728.29733)" />
    <g
       id="g265"
       aria-label="t&#10;x"
       transform="matrix(1.3333333,0,0,1.3333333,425.22667,744.23733)">
      <path
         id="path266"
         d="m 2.0507031,-3.9836641 h 0.9375 c 0.1992188,0 0.3046875,0 0.3046875,-0.1992187 0,-0.1054688 -0.1054687,-0.1054688 -0.28125,-0.1054688 H 2.1327344 c 0.3632812,-1.4179687 0.4101562,-1.6171875 0.4101562,-1.6757812 0,-0.1757813 -0.1171875,-0.2695313 -0.2929687,-0.2695313 -0.023437,0 -0.3046875,0.011719 -0.3984375,0.3515625 l -0.3867188,1.59375 H 0.52726562 c -0.19921875,0 -0.29296875,0 -0.29296875,0.1875 0,0.1171875 0.0703125,0.1171875 0.26953125,0.1171875 H 1.3827344 c -0.71484378,2.8242188 -0.75000003,3.00000004 -0.75000003,3.17578129 0,0.5390625 0.37500003,0.9140625 0.91406253,0.9140625 1.0078125,0 1.5820312,-1.45312499 1.5820312,-1.53515629 0,-0.09375 -0.082031,-0.09375 -0.1171875,-0.09375 -0.09375,0 -0.1054687,0.023437 -0.1523437,0.140625 -0.4335938,1.03125004 -0.9609375,1.27734379 -1.3007813,1.27734379 -0.1992187,0 -0.3046875,-0.12890625 -0.3046875,-0.45703125 0,-0.24609375 0.023437,-0.31640625 0.058594,-0.48046874 z m 0,0"
         style="fill:#ff0000;fill-opacity:1;fill-rule:nonzero;stroke:none" />
      <path
         id="path267"
         d="m 5.3319531,0.75657031 c -0.070312,0.234375 -0.2929687,0.60937499 -0.65625,0.60937499 -0.023437,0 -0.2226562,0 -0.375,-0.09375 0.28125,-0.09375 0.3046875,-0.33984374 0.3046875,-0.38671874 0,-0.15234375 -0.1171875,-0.2578125 -0.28125,-0.2578125 -0.1875,0 -0.3867187,0.1640625 -0.3867187,0.43359374 0,0.3398438 0.3867187,0.5039063 0.7265625,0.5039063 0.3164062,0 0.609375,-0.1992188 0.7851562,-0.4921875 0.1640625,0.3632812 0.5507813,0.4921875 0.8203125,0.4921875 0.8085938,0 1.2304688,-0.86718754 1.2304688,-1.06640629 0,-0.09375 -0.09375,-0.09375 -0.1054688,-0.09375 -0.1054687,0 -0.1054687,0.0351563 -0.140625,0.1171875 -0.140625,0.48046879 -0.5625,0.84374999 -0.9492187,0.84374999 -0.28125,0 -0.421875,-0.1875 -0.421875,-0.44531249 0,-0.1875 0.1640625,-0.8203125 0.3632812,-1.59375 0.1289063,-0.53906251 0.4453125,-0.71484371 0.6796875,-0.71484371 0.011719,0 0.2226563,0 0.375,0.1054687 -0.2226562,0.058594 -0.3046875,0.2578125 -0.3046875,0.37500001 0,0.15234375 0.1171875,0.2578125 0.28125,0.2578125 0.1523438,0 0.3867188,-0.12890625 0.3867188,-0.42187501 0,-0.3867187 -0.4453125,-0.5039062 -0.7265625,-0.5039062 -0.3515625,0 -0.6328125,0.2226562 -0.7851563,0.4921875 -0.1171875,-0.2929688 -0.4453125,-0.4921875 -0.8320312,-0.4921875 -0.7851563,0 -1.2304688,0.85546871 -1.2304688,1.06640621 0,0.0820313 0.1054688,0.0820313 0.1171875,0.0820313 0.09375,0 0.1054688,-0.0234375 0.140625,-0.1171875 0.1757813,-0.53906241 0.609375,-0.84374991 0.9492188,-0.84374991 0.234375,0 0.421875,0.1289062 0.421875,0.46874991 0,0.12890625 -0.082031,0.48046875 -0.1523438,0.71484375 z m 0,0"
         style="fill:#ff0000;fill-opacity:1;fill-rule:nonzero;stroke:none" />
    </g>
    <g
       id="g267"
       aria-label="t&#10;y"
       transform="matrix(1.3333333,0,0,1.3333333,449.99467,744.23733)">
      <path
         id="path268"
         d="m 2.0518516,-3.9836641 h 0.9375 c 0.1992187,0 0.3046875,0 0.3046875,-0.1992187 0,-0.1054688 -0.1054688,-0.1054688 -0.28125,-0.1054688 H 2.1338828 c 0.3632813,-1.4179687 0.4101563,-1.6171875 0.4101563,-1.6757812 0,-0.1757813 -0.1171875,-0.2695313 -0.2929688,-0.2695313 -0.023437,0 -0.3046875,0.011719 -0.3984375,0.3515625 l -0.3867187,1.59375 H 0.52841406 c -0.19921875,0 -0.29296875,0 -0.29296875,0.1875 0,0.1171875 0.0703125,0.1171875 0.26953125,0.1171875 H 1.3838828 c -0.71484374,2.8242188 -0.74999999,3.00000004 -0.74999999,3.17578129 0,0.5390625 0.37499999,0.9140625 0.91406249,0.9140625 1.0078125,0 1.5820313,-1.45312499 1.5820313,-1.53515629 0,-0.09375 -0.082031,-0.09375 -0.1171875,-0.09375 -0.09375,0 -0.1054688,0.023437 -0.1523438,0.140625 -0.4335937,1.03125004 -0.9609375,1.27734379 -1.3007812,1.27734379 -0.1992188,0 -0.3046875,-0.12890625 -0.3046875,-0.45703125 0,-0.24609375 0.023437,-0.31640625 0.058594,-0.48046874 z m 0,0"
         style="fill:#00ff00;fill-opacity:1;fill-rule:nonzero;stroke:none" />
      <path
         id="path269"
         d="m 7.4776328,-1.1301484 c 0.023437,-0.1054688 0.023437,-0.1171875 0.023437,-0.1523438 0,-0.140625 -0.1054687,-0.2226562 -0.2226562,-0.2226562 -0.082031,0 -0.2109375,0.035156 -0.2929688,0.1640625 -0.023437,0.035156 -0.070312,0.2578125 -0.1054687,0.39843746 l -0.1523438,0.5859375 c -0.035156,0.1640625 -0.2578125,1.04296875 -0.28125,1.125 0,0 -0.3046875,0.59765624 -0.8554687,0.59765624 -0.46875,0 -0.46875,-0.44531249 -0.46875,-0.57421874 0,-0.375 0.1523437,-0.8203125 0.3632812,-1.359375 0.082031,-0.22265625 0.1171875,-0.3046875 0.1171875,-0.421875 0,-0.32812496 -0.28125,-0.58593746 -0.65625,-0.58593746 -0.703125,0 -1.0195312,0.94921871 -1.0195312,1.06640621 0,0.0820313 0.09375,0.0820313 0.1171875,0.0820313 0.09375,0 0.1054687,-0.0351563 0.1289062,-0.10546875 0.1757813,-0.58593746 0.46875,-0.85546866 0.75,-0.85546866 0.1171875,0 0.1757813,0.082031 0.1757813,0.2460937 0,0.16406246 -0.058594,0.31640621 -0.09375,0.41015621 -0.3398438,0.84375 -0.4101563,1.1015625 -0.4101563,1.40625 0,0.1171875 0,0.44531259 0.2695313,0.67968759 0.2226562,0.1757812 0.515625,0.2109375 0.703125,0.2109375 0.28125,0 0.5273437,-0.1054688 0.7617187,-0.3164063 -0.09375,0.3867188 -0.1757812,0.6796875 -0.46875,1.03125 -0.1875,0.2109375 -0.4570312,0.4453125 -0.8320312,0.4453125 -0.046875,0 -0.375,0 -0.5273438,-0.234375 0.375,-0.035156 0.375,-0.375 0.375,-0.3867187 0,-0.2226563 -0.1992187,-0.2578125 -0.2695312,-0.2578125 -0.1757813,0 -0.3984375,0.140625 -0.3984375,0.4570312 0,0.3515625 0.328125,0.609375 0.8320312,0.609375 0.703125,0 1.5585938,-0.5390625 1.7695313,-1.40625 z m 0,0"
         style="fill:#00ff00;fill-opacity:1;fill-rule:nonzero;stroke:none" />
    </g>
    <g
       id="g269"
       aria-label="t&#10;z"
       transform="matrix(1.3333333,0,0,1.3333333,474.46,744.23733)">
      <path
         id="path270"
         d="m 2.0514844,-3.9836641 h 0.9375 c 0.1992187,0 0.3046875,0 0.3046875,-0.1992187 0,-0.1054688 -0.1054688,-0.1054688 -0.28125,-0.1054688 H 2.1335156 c 0.3632813,-1.4179687 0.4101563,-1.6171875 0.4101563,-1.6757812 0,-0.1757813 -0.1171875,-0.2695313 -0.2929688,-0.2695313 -0.023437,0 -0.3046875,0.011719 -0.3984375,0.3515625 l -0.3867187,1.59375 H 0.52804687 c -0.19921875,0 -0.29296875,0 -0.29296875,0.1875 0,0.1171875 0.0703125,0.1171875 0.26953125,0.1171875 H 1.3835156 c -0.71484373,2.8242188 -0.74999998,3.00000004 -0.74999998,3.17578129 0,0.5390625 0.37499998,0.9140625 0.91406248,0.9140625 1.0078125,0 1.5820313,-1.45312499 1.5820313,-1.53515629 0,-0.09375 -0.082031,-0.09375 -0.1171875,-0.09375 -0.09375,0 -0.1054688,0.023437 -0.1523438,0.140625 -0.4335937,1.03125004 -0.9609375,1.27734379 -1.3007812,1.27734379 -0.1992188,0 -0.3046875,-0.12890625 -0.3046875,-0.45703125 0,-0.24609375 0.023437,-0.31640625 0.058594,-0.48046874 z m 0,0"
         style="fill:#0000ff;fill-opacity:1;fill-rule:nonzero;stroke:none" />
      <path
         id="path271"
         d="m 4.7702344,0.88547656 c 0.1757812,-0.1875 0.3046875,-0.31640625 0.9023437,-0.796875 0.140625,-0.1171875 0.6679688,-0.52734375 0.8671875,-0.7265625 0.421875,-0.42187496 0.6914063,-0.77343746 0.6914063,-0.85546876 0,-0.082031 -0.09375,-0.082031 -0.1171875,-0.082031 -0.058594,0 -0.082031,0.011719 -0.1171875,0.070312 -0.2226563,0.3164062 -0.3632813,0.421875 -0.5273438,0.421875 -0.09375,0 -0.1992187,-0.011719 -0.3984375,-0.2109375 -0.2460937,-0.234375 -0.3984375,-0.28125 -0.5507812,-0.28125 -0.5625,0 -0.9375,0.59765621 -0.9375,0.80859371 0,0.0703125 0.070312,0.0820313 0.1171875,0.0820313 0.082031,0 0.09375,-0.0117188 0.1289062,-0.09375 C 4.9342969,-1.02468 5.3210156,-1.0363987 5.4264844,-1.0363987 c 0.1640625,0 0.3515625,0.046875 0.4453125,0.0585937 0.3867187,0.09375 0.4335937,0.09375 0.609375,0.09375 -0.1875,0.1875 -0.3046875,0.3046875 -0.9726563,0.84375 C 4.9694531,0.38157031 4.7819531,0.55735156 4.6413281,0.69797656 4.2311719,1.1081328 4.0202344,1.4128203 4.0202344,1.4831328 c 0,0.082031 0.09375,0.082031 0.1171875,0.082031 0.070312,0 0.09375,-0.011719 0.1289062,-0.070312 0.1875,-0.2695313 0.3984375,-0.421875 0.6328125,-0.421875 0.082031,0 0.1875,0 0.375,0.1757812 0.2226563,0.2109375 0.3632813,0.3164063 0.5859375,0.3164063 0.7382813,0 1.2070313,-0.84375004 1.2070313,-1.07812504 0,-0.0820313 -0.070312,-0.09375 -0.1171875,-0.09375 -0.082031,0 -0.09375,0.0351563 -0.1289063,0.1171875 C 6.6921094,0.85032031 6.2819531,1.0261016 5.9421094,1.0261016 c -0.1640625,0 -0.3398438,-0.0351563 -0.515625,-0.0820313 -0.3164063,-0.0703125 -0.375,-0.0703125 -0.4921875,-0.0703125 -0.023437,0 -0.1171875,0 -0.1640625,0.0117188 z m 0,0"
         style="fill:#0000ff;fill-opacity:1;fill-rule:nonzero;stroke:none" />
    </g>
    <path
       id="path272"
       d="m 2.9288047,-6.3742891 c 0,-0.234375 0,-0.2578125 -0.234375,-0.2578125 -0.609375,0.6328125 -1.4882813,0.6328125 -1.80468751,0.6328125 v 0.3164063 c 0.19921871,0 0.78515621,0 1.30078121,-0.2578125 v 5.15624999 c 0,0.3515625 -0.035156,0.48046875 -0.9257812,0.48046875 H 0.94833594 V 7.109375e-4 C 1.2998984,-0.03444531 2.1553672,-0.03444531 2.5538047,-0.03444531 c 0.3984375,0 1.265625,0 1.6171875,0.0351562475 V -0.30397656 H 3.8545859 c -0.9023437,0 -0.9257812,-0.1171875 -0.9257812,-0.48046875 z m 0,0"
       style="fill:var(--svg-text-color,#000000);fill-opacity:1;fill-rule:nonzero;stroke:none"
       aria-label="1"
       transform="matrix(1.3333333,0,0,1.3333333,498.66133,744.23733)" />
    <path
       id="path273"
       d="M 2.6938984,17.530484 H 3.3853047 V -0.38748437 H 0.06889844 V 0.30392188 H 2.6938984 Z m 0,5.991211 h 0.6914063 v -6 H 2.6938984 Z m 0,5.979493 h 0.6914063 v -6 H 2.6938984 Z m 0,17.226562 H 0.06889844 v 0.679688 H 3.3853047 V 29.489469 H 2.6938984 Z m 0,0"
       style="fill:var(--svg-text-color,#000000);fill-opacity:1;fill-rule:nonzero;stroke:none"
       aria-label="&#10;&#10;&#10;"
       transform="matrix(1.3333333,0,0,1.3333333,505.30267,686.32133)" />
  </g>
</svg>
