<?xml version="1.0" encoding="UTF-8" standalone="no"?><!DOCTYPE svg PUBLIC "-//W3C//DTD SVG 1.1//EN" "http://www.w3.org/Graphics/SVG/1.1/DTD/svg11.dtd"><svg width="4934px" height="1063px" version="1.1" xmlns="http://www.w3.org/2000/svg" xmlns:xlink="http://www.w3.org/1999/xlink" xml:space="preserve" xmlns:serif="http://www.serif.com/" style="fill-rule:evenodd;clip-rule:evenodd;stroke-linejoin:round;stroke-miterlimit:2;"><g id="Logo-cutout" serif:id="Logo cutout"><path id="Left" d="M481.571,1003.071l0,0.258l-395.946,-231.775l0,-463.546l395.946,-231.775l0,-0.258l395.946,231.775l0,463.546l-395.946,231.775Zm0,-721.833c-142.6,0.029 -258.367,115.808 -258.367,258.417c0,142.608 115.767,258.388 258.367,258.417c142.6,-0.029 258.367,-115.808 258.367,-258.417c0,-142.608 -115.767,-258.388 -258.367,-258.417Zm0,498.954c-132.733,-0.029 -240.483,-107.796 -240.483,-240.537c0,-132.738 107.754,-240.508 240.483,-240.538c132.733,0.029 240.483,107.796 240.483,240.538c0,132.737 -107.754,240.508 -240.483,240.537Zm0,-421.658l-45.258,102.646l-111.646,-12.142l66.338,90.621l-66.337,90.621l111.646,-12.142l45.258,102.646l45.258,-102.646l111.646,12.142l-66.337,-90.621l66.337,-90.621l-111.646,12.142l-45.258,-102.646Z" style="fill:#d3d3d3;"/></g><path d="M1129.542,486.479c0,-59.663 1.587,-98.113 4.762,-115.35c3.175,-17.242 8.846,-33.121 17.013,-47.637c11.571,-21.55 30.567,-41.854 56.996,-60.908c26.429,-19.054 59.15,-28.583 98.167,-28.583c38.792,0 71.4,9.529 97.829,28.583c26.429,19.054 45.654,39.358 57.675,60.908c7.942,14.517 13.496,30.396 16.675,47.637c3.175,17.242 4.763,55.692 4.763,115.35c0,59.662 -1.587,98.113 -4.763,115.35c-3.175,17.242 -8.733,33.121 -16.675,47.638c-12.021,21.779 -31.25,42.025 -57.675,60.737c-26.429,18.717 -59.037,28.071 -97.829,28.071c-39.017,0 -71.742,-9.358 -98.167,-28.071c-26.429,-18.717 -45.425,-38.962 -56.996,-60.737c-8.167,-14.517 -13.838,-30.396 -17.013,-47.638c-3.175,-17.242 -4.762,-55.692 -4.762,-115.35Zm75.2,0c0,51.042 1.758,84.158 5.275,99.358c3.517,15.2 10.15,28.925 19.904,41.171c7.488,9.983 17.696,18.546 30.625,25.692c12.929,7.146 28.242,10.717 45.938,10.717c17.696,0 33.008,-3.571 45.938,-10.717c12.929,-7.146 23.137,-15.708 30.625,-25.692c9.754,-12.25 16.392,-25.975 19.904,-41.171c3.517,-15.2 5.275,-48.317 5.275,-99.358c0,-50.812 -1.758,-83.821 -5.275,-99.021c-3.517,-15.2 -10.15,-29.15 -19.904,-41.854c-7.488,-9.529 -17.696,-17.921 -30.625,-25.179c-12.929,-7.258 -28.242,-10.887 -45.938,-10.887c-17.696,0 -33.008,3.629 -45.938,10.887c-12.929,7.258 -23.137,15.654 -30.625,25.179c-9.754,12.704 -16.392,26.654 -19.904,41.854c-3.517,15.2 -5.275,48.204 -5.275,99.021Z" style="fill:#d3d3d3;fill-rule:nonzero;stroke:#d3d3d3;stroke-width:17.38px;"/><path d="M1565.092,877.113l0,-496.117l71.117,0l0,37.087c24.725,-27.45 55.125,-41.171 91.192,-41.171c21.55,0 40.15,4.367 55.804,13.1c15.654,8.733 28.583,19.679 38.792,32.838c9.754,12.704 16.392,27.504 19.904,44.404c3.517,16.9 5.275,47.129 5.275,90.683c0,43.329 -1.758,73.5 -5.275,90.512c-3.517,17.013 -10.15,31.758 -19.904,44.233c-10.208,13.383 -23.137,24.329 -38.792,32.837c-15.654,8.508 -34.254,12.758 -55.804,12.758c-18.375,0 -34.879,-3.742 -49.508,-11.229c-14.633,-7.487 -28.525,-17.579 -41.683,-30.283l0,180.342l-71.117,0l0,0.004Zm140.871,-209.608c33.346,0 53.367,-11.454 60.058,-34.367c6.692,-22.912 10.038,-47.979 10.038,-75.2c0,-27.221 -3.346,-52.346 -10.038,-75.371c-6.692,-23.025 -26.712,-34.538 -60.058,-34.538c-33.346,0 -53.308,11.908 -59.888,35.729c-6.579,23.821 -9.867,48.546 -9.867,74.179c0,25.633 3.287,50.304 9.867,74.008c6.579,23.704 26.542,35.558 59.888,35.558Z" style="fill:#d3d3d3;fill-rule:nonzero;stroke:#d3d3d3;stroke-width:17.38px;"/><path d="M2198.333,584.479l-219.817,0c0,29.038 7.883,50.812 23.65,65.333c15.767,14.517 35.9,21.779 60.4,21.779c29.262,0 55.125,-11.342 77.583,-34.029l51.379,43.896c-17.467,20.417 -37.146,34.992 -59.037,43.725c-21.892,8.733 -44.746,13.1 -68.567,13.1c-36.296,0 -71.458,-11.737 -105.483,-35.217c-34.029,-23.479 -51.042,-71.513 -51.042,-144.104c0,-68.733 15.708,-116.258 47.129,-142.575c31.417,-26.312 64.254,-39.471 98.508,-39.471c38.792,0 72.704,13.442 101.742,40.321c29.037,26.883 43.554,63.121 43.554,108.717l0,58.525Zm-219.817,-58.525l149.038,0c-1.133,-26.542 -8.621,-46.846 -22.458,-60.908c-13.838,-14.062 -31.192,-21.096 -52.062,-21.096c-21.096,0 -38.621,7.033 -52.571,21.096c-13.95,14.062 -21.267,34.367 -21.946,60.908Z" style="fill:#d3d3d3;fill-rule:nonzero;stroke:#d3d3d3;stroke-width:17.38px;"/><path d="M2273.192,734.196l0,-353.2l71.117,0l0,37.771l1.363,0c22.004,-27.904 52.629,-41.854 91.875,-41.854c27.45,0 53.933,10.433 79.454,31.304c25.521,20.871 38.279,51.267 38.279,91.192l0,234.788l-71.117,0l0,-210.287c0,-23.821 -6.633,-42.421 -19.904,-55.804c-13.271,-13.383 -29.775,-20.075 -49.508,-20.075c-20.417,0 -37.258,6.692 -50.529,20.075c-13.271,13.383 -19.904,31.987 -19.904,55.804l0,210.287l-71.125,0Z" style="fill:#d3d3d3;fill-rule:nonzero;stroke:#d3d3d3;stroke-width:17.38px;"/><path d="M2737.663,734.196l0,-429.083l-135.767,0l0,-66.692l346.738,0l0,66.692l-135.767,0l0,429.083l-75.204,0Z" style="fill:#d3d3d3;fill-rule:nonzero;stroke:#d3d3d3;stroke-width:17.38px;"/><path d="M3001.713,734.196l0,-495.775l75.2,-0l0,255.542l1.7,0l203.821,-255.542l89.492,0l-158.908,195.654l175.579,300.121l-89.15,0l-135.429,-242.275l-87.108,91.192l0,151.079l-75.2,0l0.004,0.004Z" style="fill:#d3d3d3;fill-rule:nonzero;stroke:#d3d3d3;stroke-width:17.38px;"/><path d="M3607.738,734.196l0,-495.775l192.254,-0c48.317,0 84.896,12.421 109.737,37.258c24.842,24.842 37.258,56.767 37.258,95.788c0,20.417 -4.992,40.037 -14.971,58.867c-9.983,18.829 -29.375,34.708 -58.188,47.638l0,1.362c27.221,6.35 47.525,20.7 60.908,43.046c13.383,22.346 20.075,46.108 20.075,71.287c0,42.875 -13.667,77.017 -41.004,102.421c-27.333,25.408 -59.604,38.108 -96.808,38.108l-209.267,0l0.004,0Zm190.892,-220.154l-115.692,0l0,149.379l115.692,0c27.904,0 48.375,-7.542 61.421,-22.629c13.042,-15.083 19.567,-32.383 19.567,-51.892c0,-19.508 -6.521,-36.863 -19.567,-52.062c-13.042,-15.2 -33.517,-22.8 -61.421,-22.8l0,0.004Zm-6.804,-208.925l-108.888,0l0,142.233l108.888,0c26.996,0 47.071,-6.921 60.229,-20.758c13.158,-13.837 19.737,-30.625 19.737,-50.358c0,-19.054 -6.579,-35.671 -19.737,-49.85c-13.158,-14.179 -33.233,-21.267 -60.229,-21.267Z" style="fill:#d3d3d3;fill-rule:nonzero;stroke:#d3d3d3;stroke-width:17.38px;"/><path d="M4026.608,648.792l0,-410.367l71.117,-0l0,404.583c0,16.333 8.846,24.5 26.542,24.5l24.158,0l0,66.692l-31.304,0c-25.863,0 -47.413,-6.296 -64.65,-18.883c-17.242,-12.592 -25.862,-34.763 -25.862,-66.525Z" style="fill:#d3d3d3;fill-rule:nonzero;stroke:#d3d3d3;stroke-width:17.38px;"/><path d="M4188.921,557.258c0,-37.883 2.95,-66.125 8.846,-84.729c5.9,-18.6 15.654,-35.387 29.262,-50.358c9.754,-10.662 23.196,-20.871 40.321,-30.625c17.125,-9.754 39.529,-14.633 67.204,-14.633c27.221,0 49.454,4.879 66.692,14.633c17.242,9.754 30.738,19.963 40.492,30.625c13.613,14.971 23.367,31.758 29.262,50.358c5.9,18.6 8.846,46.846 8.846,84.729c0,38.562 -2.95,67.146 -8.846,85.75c-5.9,18.6 -15.654,35.387 -29.262,50.358c-9.754,10.888 -23.25,21.096 -40.492,30.625c-17.242,9.529 -39.471,14.292 -66.692,14.292c-27.675,0 -50.075,-4.762 -67.204,-14.292c-17.125,-9.529 -30.567,-19.737 -40.321,-30.625c-13.613,-14.971 -23.367,-31.758 -29.263,-50.358c-5.9,-18.6 -8.846,-47.183 -8.846,-85.75Zm220.154,0.679c0,-25.633 -1.304,-43.667 -3.913,-54.104c-2.608,-10.433 -7.087,-20.417 -13.442,-29.946c-12.475,-17.242 -31.533,-25.862 -57.167,-25.862c-26.088,0 -45.142,8.621 -57.167,25.862c-6.804,9.529 -11.4,19.508 -13.779,29.946c-2.383,10.433 -3.571,28.242 -3.571,53.421c0,25.863 1.192,44.067 3.571,54.613c2.383,10.55 6.975,20.475 13.779,29.775c12.021,17.242 31.079,25.862 57.167,25.862c25.633,0 44.687,-8.621 57.167,-25.862c6.35,-9.3 10.833,-19.167 13.442,-29.604c2.608,-10.433 3.913,-28.471 3.913,-54.104l0,0.004Z" style="fill:#d3d3d3;fill-rule:nonzero;stroke:#d3d3d3;stroke-width:17.38px;"/><path d="M4753.088,733.858l0,-36.408c-24.725,27.221 -55.125,40.833 -91.192,40.833c-23.138,0 -42.479,-4.592 -58.017,-13.779c-15.538,-9.188 -27.279,-18.883 -35.217,-29.092c-10.208,-13.158 -17.183,-27.108 -20.925,-41.854c-3.742,-14.746 -5.613,-46.617 -5.613,-95.617c0,-49 1.871,-80.871 5.613,-95.617c3.742,-14.746 10.717,-28.808 20.925,-42.192c7.942,-9.983 19.679,-19.679 35.217,-29.092c15.537,-9.413 34.879,-14.121 58.017,-14.121c34.479,0 64.879,13.95 91.192,41.854l0,-37.771l71.117,0l0,345.033c0,53.083 -15.483,92.212 -46.446,117.392c-30.967,25.179 -66.525,37.771 -106.675,37.771c-22.683,0 -44.917,-5.446 -66.692,-16.333c-21.779,-10.888 -40.492,-25.179 -56.146,-42.875l55.125,-43.896c8.621,8.621 18.883,16.104 30.796,22.458c11.908,6.35 24.671,9.529 38.279,9.529c23.592,0 42.929,-6.579 58.017,-19.737c15.083,-13.158 22.629,-31.988 22.629,-56.483l-0.004,-0.004Zm-139.85,-175.921c0,28.354 0.737,47.183 2.212,56.483c1.475,9.3 5.387,17.921 11.738,25.862c4.762,6.35 11.796,12.475 21.096,18.375c9.3,5.9 21.096,8.846 35.387,8.846c13.837,0 25.35,-2.95 34.537,-8.846c9.188,-5.9 16.275,-12.021 21.267,-18.375c6.125,-7.942 9.925,-16.558 11.4,-25.862c1.475,-9.3 2.212,-28.129 2.212,-56.483c0,-28.354 -0.738,-47.183 -2.212,-56.483c-1.475,-9.3 -5.275,-18.033 -11.4,-26.2c-4.992,-6.125 -12.079,-12.192 -21.267,-18.204c-9.187,-6.012 -20.7,-9.017 -34.537,-9.017c-14.292,0 -26.088,3.004 -35.387,9.017c-9.3,6.012 -16.333,12.079 -21.096,18.204c-6.35,8.167 -10.267,16.9 -11.738,26.2c-1.475,9.3 -2.212,28.129 -2.212,56.483Z" style="fill:#d3d3d3;fill-rule:nonzero;stroke:#d3d3d3;stroke-width:17.38px;"/></svg>