<?xml version="1.0" encoding="UTF-8" standalone="no"?><!DOCTYPE svg PUBLIC "-//W3C//DTD SVG 1.1//EN" "http://www.w3.org/Graphics/SVG/1.1/DTD/svg11.dtd"><svg width="1184px" height="255px" version="1.1" xmlns="http://www.w3.org/2000/svg" xmlns:xlink="http://www.w3.org/1999/xlink" xml:space="preserve" xmlns:serif="http://www.serif.com/" style="fill-rule:evenodd;clip-rule:evenodd;stroke-linejoin:round;stroke-miterlimit:2;"><g id="Logo-cutout" serif:id="Logo cutout"><path id="Left" d="M115.577,240.737l0,0.062l-95.027,-55.626l0,-111.251l95.027,-55.626l0,-0.062l95.027,55.626l0,111.251l-95.027,55.626Zm0,-173.24c-34.224,0.007 -62.008,27.794 -62.008,62.02c0,34.226 27.784,62.013 62.008,62.02c34.224,-0.007 62.008,-27.794 62.008,-62.02c0,-34.226 -27.784,-62.013 -62.008,-62.02Zm-0,119.749c-31.856,-0.007 -57.716,-25.871 -57.716,-57.729c0,-31.857 25.861,-57.722 57.716,-57.729c31.856,0.007 57.716,25.871 57.716,57.729c0,31.857 -25.861,57.722 -57.716,57.729Zm0,-101.198l-10.862,24.635l-26.795,-2.914l15.921,21.749l-15.921,21.749l26.795,-2.914l10.862,24.635l10.862,-24.635l26.795,2.914l-15.921,-21.749l15.921,-21.749l-26.795,2.914l-10.862,-24.635Z" style="fill:#fff;"/></g><path d="M271.09,116.755c0,-14.319 0.381,-23.547 1.143,-27.684c0.762,-4.138 2.123,-7.949 4.083,-11.433c2.777,-5.172 7.336,-10.045 13.679,-14.618c6.343,-4.573 14.196,-6.86 23.56,-6.86c9.31,0 17.136,2.287 23.479,6.86c6.343,4.573 10.957,9.446 13.842,14.618c1.906,3.484 3.239,7.295 4.002,11.433c0.762,4.138 1.143,13.366 1.143,27.684c0,14.319 -0.381,23.547 -1.143,27.684c-0.762,4.138 -2.096,7.949 -4.002,11.433c-2.885,5.227 -7.5,10.086 -13.842,14.577c-6.343,4.492 -14.169,6.737 -23.479,6.737c-9.364,0 -17.218,-2.246 -23.56,-6.737c-6.343,-4.492 -10.902,-9.351 -13.679,-14.577c-1.96,-3.484 -3.321,-7.295 -4.083,-11.433c-0.762,-4.138 -1.143,-13.366 -1.143,-27.684Zm18.048,0c0,12.25 0.422,20.198 1.266,23.846c0.844,3.648 2.436,6.942 4.777,9.881c1.797,2.396 4.247,4.451 7.35,6.166c3.103,1.715 6.778,2.572 11.025,2.572c4.247,0 7.922,-0.857 11.025,-2.572c3.103,-1.715 5.553,-3.77 7.35,-6.166c2.341,-2.94 3.934,-6.234 4.777,-9.881c0.844,-3.648 1.266,-11.596 1.266,-23.846c0,-12.195 -0.422,-20.117 -1.266,-23.765c-0.844,-3.648 -2.436,-6.996 -4.777,-10.045c-1.797,-2.287 -4.247,-4.301 -7.35,-6.043c-3.103,-1.742 -6.778,-2.613 -11.025,-2.613c-4.247,0 -7.922,0.871 -11.025,2.613c-3.103,1.742 -5.553,3.757 -7.35,6.043c-2.341,3.049 -3.934,6.397 -4.777,10.045c-0.844,3.648 -1.266,11.569 -1.266,23.765Z" style="fill:#fff;fill-rule:nonzero;stroke:#fff;stroke-width:4.17px;"/><path d="M375.622,210.507l0,-119.068l17.068,0l0,8.901c5.934,-6.588 13.23,-9.881 21.886,-9.881c5.172,0 9.636,1.048 13.393,3.144c3.757,2.096 6.86,4.723 9.31,7.881c2.341,3.049 3.934,6.601 4.777,10.657c0.844,4.056 1.266,11.311 1.266,21.764c0,10.399 -0.422,17.64 -1.266,21.723c-0.844,4.083 -2.436,7.622 -4.777,10.616c-2.45,3.212 -5.553,5.839 -9.31,7.881c-3.757,2.042 -8.221,3.062 -13.393,3.062c-4.41,0 -8.371,-0.898 -11.882,-2.695c-3.512,-1.797 -6.846,-4.219 -10.004,-7.268l0,43.282l-17.068,0Zm33.809,-50.306c8.003,0 12.808,-2.749 14.414,-8.248c1.606,-5.499 2.409,-11.515 2.409,-18.048c0,-6.533 -0.803,-12.563 -2.409,-18.089c-1.606,-5.526 -6.411,-8.289 -14.414,-8.289c-8.003,0 -12.794,2.858 -14.373,8.575c-1.579,5.717 -2.368,11.651 -2.368,17.803c0,6.152 0.789,12.073 2.368,17.762c1.579,5.689 6.37,8.534 14.373,8.534Z" style="fill:#fff;fill-rule:nonzero;stroke:#fff;stroke-width:4.17px;"/><path d="M527.6,140.275l-52.756,0c0,6.969 1.892,12.195 5.676,15.68c3.784,3.484 8.616,5.227 14.496,5.227c7.023,0 13.23,-2.722 18.62,-8.167l12.331,10.535c-4.192,4.9 -8.915,8.398 -14.169,10.494c-5.254,2.096 -10.739,3.144 -16.456,3.144c-8.711,0 -17.15,-2.817 -25.316,-8.452c-8.167,-5.635 -12.25,-17.163 -12.25,-34.585c0,-16.496 3.77,-27.902 11.311,-34.218c7.54,-6.315 15.421,-9.473 23.642,-9.473c9.31,0 17.449,3.226 24.418,9.677c6.969,6.452 10.453,15.149 10.453,26.092l0,14.046Zm-52.756,-14.046l35.769,0c-0.272,-6.37 -2.069,-11.243 -5.39,-14.618c-3.321,-3.375 -7.486,-5.063 -12.495,-5.063c-5.063,0 -9.269,1.688 -12.617,5.063c-3.348,3.375 -5.104,8.248 -5.267,14.618Z" style="fill:#fff;fill-rule:nonzero;stroke:#fff;stroke-width:4.17px;"/><path d="M545.566,176.207l0,-84.768l17.068,0l0,9.065l0.327,0c5.281,-6.697 12.631,-10.045 22.05,-10.045c6.588,0 12.944,2.504 19.069,7.513c6.125,5.009 9.187,12.304 9.187,21.886l0,56.349l-17.068,0l0,-50.469c0,-5.717 -1.592,-10.181 -4.777,-13.393c-3.185,-3.212 -7.146,-4.818 -11.882,-4.818c-4.9,0 -8.942,1.606 -12.127,4.818c-3.185,3.212 -4.777,7.677 -4.777,13.393l0,50.469l-17.068,0Z" style="fill:#fff;fill-rule:nonzero;stroke:#fff;stroke-width:4.17px;"/><path d="M657.039,176.207l0,-102.98l-32.584,0l0,-16.006l83.217,0l0,16.006l-32.584,0l0,102.98l-18.048,0Z" style="fill:#fff;fill-rule:nonzero;stroke:#fff;stroke-width:4.17px;"/><path d="M720.411,176.207l0,-118.986l18.048,0l0,61.33l0.408,0l48.917,-61.33l21.478,0l-38.138,46.957l42.139,72.029l-21.396,0l-32.503,-58.146l-20.906,21.886l0,36.259l-18.048,0Z" style="fill:#fff;fill-rule:nonzero;stroke:#fff;stroke-width:4.17px;"/><path d="M865.857,176.207l0,-118.986l46.141,0c11.596,0 20.375,2.981 26.337,8.942c5.962,5.962 8.942,13.624 8.942,22.989c0,4.9 -1.198,9.609 -3.593,14.128c-2.396,4.519 -7.05,8.33 -13.965,11.433l0,0.327c6.533,1.524 11.406,4.968 14.618,10.331c3.212,5.363 4.818,11.066 4.818,17.109c0,10.29 -3.28,18.484 -9.841,24.581c-6.56,6.098 -14.305,9.146 -23.234,9.146l-50.224,0Zm45.814,-52.837l-27.766,0l0,35.851l27.766,0c6.697,0 11.61,-1.81 14.741,-5.431c3.13,-3.62 4.696,-7.772 4.696,-12.454c0,-4.682 -1.565,-8.847 -4.696,-12.495c-3.13,-3.648 -8.044,-5.472 -14.741,-5.472Zm-1.633,-50.142l-26.133,0l0,34.136l26.133,0c6.479,0 11.297,-1.661 14.455,-4.982c3.158,-3.321 4.737,-7.35 4.737,-12.086c0,-4.573 -1.579,-8.561 -4.737,-11.964c-3.158,-3.403 -7.976,-5.104 -14.455,-5.104Z" style="fill:#fff;fill-rule:nonzero;stroke:#fff;stroke-width:4.17px;"/><path d="M966.386,155.71l0,-98.488l17.068,0l0,97.1c0,3.92 2.123,5.88 6.37,5.88l5.798,0l0,16.006l-7.513,0c-6.207,0 -11.379,-1.511 -15.516,-4.532c-4.138,-3.022 -6.207,-8.343 -6.207,-15.966Z" style="fill:#fff;fill-rule:nonzero;stroke:#fff;stroke-width:4.17px;"/><path d="M1005.341,133.742c0,-9.092 0.708,-15.87 2.123,-20.335c1.416,-4.464 3.757,-8.493 7.023,-12.086c2.341,-2.559 5.567,-5.009 9.677,-7.35c4.11,-2.341 9.487,-3.512 16.129,-3.512c6.533,0 11.869,1.171 16.006,3.512c4.138,2.341 7.377,4.791 9.718,7.35c3.267,3.593 5.608,7.622 7.023,12.086c1.416,4.464 2.123,11.243 2.123,20.335c0,9.255 -0.708,16.115 -2.123,20.58c-1.416,4.464 -3.757,8.493 -7.023,12.086c-2.341,2.613 -5.58,5.063 -9.718,7.35c-4.138,2.287 -9.473,3.43 -16.006,3.43c-6.642,0 -12.018,-1.143 -16.129,-3.43c-4.11,-2.287 -7.336,-4.737 -9.677,-7.35c-3.267,-3.593 -5.608,-7.622 -7.023,-12.086c-1.416,-4.464 -2.123,-11.324 -2.123,-20.58Zm52.837,0.163c0,-6.152 -0.313,-10.48 -0.939,-12.985c-0.626,-2.504 -1.701,-4.9 -3.226,-7.187c-2.994,-4.138 -7.568,-6.207 -13.72,-6.207c-6.261,0 -10.834,2.069 -13.72,6.207c-1.633,2.287 -2.736,4.682 -3.307,7.187c-0.572,2.504 -0.857,6.778 -0.857,12.821c0,6.207 0.286,10.576 0.857,13.107c0.572,2.532 1.674,4.914 3.307,7.146c2.885,4.138 7.459,6.207 13.72,6.207c6.152,0 10.725,-2.069 13.72,-6.207c1.524,-2.232 2.6,-4.6 3.226,-7.105c0.626,-2.504 0.939,-6.833 0.939,-12.985Z" style="fill:#fff;fill-rule:nonzero;stroke:#fff;stroke-width:4.17px;"/><path d="M1140.741,176.126l0,-8.738c-5.934,6.533 -13.23,9.8 -21.886,9.8c-5.553,0 -10.195,-1.102 -13.924,-3.307c-3.729,-2.205 -6.547,-4.532 -8.452,-6.982c-2.45,-3.158 -4.124,-6.506 -5.022,-10.045c-0.898,-3.539 -1.347,-11.188 -1.347,-22.948c0,-11.76 0.449,-19.409 1.347,-22.948c0.898,-3.539 2.572,-6.914 5.022,-10.126c1.906,-2.396 4.723,-4.723 8.452,-6.982c3.729,-2.259 8.371,-3.389 13.924,-3.389c8.275,0 15.571,3.348 21.886,10.045l0,-9.065l17.068,0l0,82.808c0,12.74 -3.716,22.131 -11.147,28.174c-7.432,6.043 -15.966,9.065 -25.602,9.065c-5.444,0 -10.78,-1.307 -16.006,-3.92c-5.227,-2.613 -9.718,-6.043 -13.475,-10.29l13.23,-10.535c2.069,2.069 4.532,3.865 7.391,5.39c2.858,1.524 5.921,2.287 9.187,2.287c5.662,0 10.303,-1.579 13.924,-4.737c3.62,-3.158 5.431,-7.677 5.431,-13.556Zm-33.564,-42.221c0,6.805 0.177,11.324 0.531,13.556c0.354,2.232 1.293,4.301 2.817,6.207c1.143,1.524 2.831,2.994 5.063,4.41c2.232,1.416 5.063,2.123 8.493,2.123c3.321,0 6.084,-0.708 8.289,-2.123c2.205,-1.416 3.906,-2.885 5.104,-4.41c1.47,-1.906 2.382,-3.974 2.736,-6.207c0.354,-2.232 0.531,-6.751 0.531,-13.556c0,-6.805 -0.177,-11.324 -0.531,-13.556c-0.354,-2.232 -1.266,-4.328 -2.736,-6.288c-1.198,-1.47 -2.899,-2.926 -5.104,-4.369c-2.205,-1.443 -4.968,-2.164 -8.289,-2.164c-3.43,0 -6.261,0.721 -8.493,2.164c-2.232,1.443 -3.92,2.899 -5.063,4.369c-1.524,1.96 -2.464,4.056 -2.817,6.288c-0.354,2.232 -0.531,6.751 -0.531,13.556Z" style="fill:#fff;fill-rule:nonzero;stroke:#fff;stroke-width:4.17px;"/></svg>